<?xml version="1.0" encoding="UTF-8" standalone="no"?>
<!DOCTYPE svg PUBLIC "-//W3C//DTD SVG 1.1//EN" "http://www.w3.org/Graphics/SVG/1.1/DTD/svg11.dtd">
<svg width="100%" height="100%" viewBox="0 0 300 300" version="1.1" xmlns="http://www.w3.org/2000/svg" xmlns:xlink="http://www.w3.org/1999/xlink" xml:space="preserve" xmlns:serif="http://www.serif.com/" style="fill-rule:evenodd;clip-rule:evenodd;stroke-linejoin:round;stroke-miterlimit:2;">
    <g transform="matrix(1,0,0,1,-198,-166)">
        <g transform="matrix(0.0545052,0,0,-0.0545052,-12.5047,806.336)">
            <g transform="matrix(18.9963,0,0,-18.9963,2610.99,14885.2)">
                <circle cx="210.894" cy="309.806" r="144.162" style="fill:white;"/>
            </g>
            <g transform="matrix(0.5,0,0,0.5,4151.56,6537.85)">
                <path d="M2725,8914C2633,8900 2614,8894 2524,8854C2359,8781 2199,8616 2145,8463C2125,8407 2123,8405 2045,8395C1996,8389 1800,8335 1770,8319C1762,8315 1726,8297 1690,8280C1424,8149 1221,7873 1166,7569C1145,7458 1142,6563 1162,6497C1186,6417 1275,6359 1353,6374C1373,6378 1415,6399 1448,6420L1508,6460L1756,6460C1893,6460 2022,6464 2042,6469C2093,6481 2154,6532 2179,6583C2198,6624 2199,6647 2201,7445C2204,8324 2203,8308 2256,8377C2294,8427 2347,8450 2425,8450C2508,8450 2560,8425 2598,8367L2625,8325L2625,6625L2597,6560C2581,6524 2566,6487 2563,6478C2558,6461 2674,6460 4894,6460L7230,6460L7207,6498C7194,6518 7173,6564 7161,6600L7139,6665L7145,8337L7172,8372C7219,8433 7264,8455 7345,8454C7403,8453 7423,8449 7457,8427C7479,8413 7507,8388 7517,8373C7566,8303 7565,8326 7570,7440L7575,6605L7602,6558C7617,6533 7647,6501 7667,6488C7704,6466 7712,6465 7974,6462L8242,6459L8292,6425C8386,6360 8475,6355 8544,6412C8620,6475 8620,6474 8620,6989C8620,7482 8613,7563 8560,7719C8480,7955 8290,8178 8075,8287C7993,8329 7805,8384 7707,8396L7654,8402L7631,8461C7547,8678 7311,8866 7066,8909C6954,8929 6757,8919 6675,8888C6471,8814 6335,8691 6241,8500L6195,8405L4877,8402C3629,8400 3559,8401 3554,8417C3551,8427 3532,8471 3512,8515C3481,8582 3459,8612 3375,8696C3238,8835 3139,8886 2943,8915C2830,8932 2842,8932 2725,8914ZM3376,8427C3433,8392 3467,8348 3485,8288C3498,8245 3500,8155 3500,7726C3500,7233 3499,7213 3479,7170C3452,7110 3425,7082 3365,7054C3249,6999 3120,7045 3059,7162C3041,7197 3040,7227 3040,7737C3040,8097 3044,8288 3051,8315C3064,8363 3135,8435 3182,8449C3238,8466 3331,8456 3376,8427ZM6637,8424C6688,8388 6717,8343 6730,8282C6737,8252 6740,8044 6738,7720L6735,7205L6710,7156C6661,7058 6560,7013 6445,7039C6400,7049 6378,7061 6345,7094C6269,7170 6270,7165 6270,7745C6270,8334 6268,8320 6352,8395C6413,8449 6445,8460 6531,8456C6585,8453 6605,8447 6637,8424ZM5967,8024C6002,7998 6010,7947 5983,7918C5938,7868 5981,7870 4894,7870C4143,7870 3867,7873 3838,7882C3787,7897 3763,7938 3780,7980C3795,8016 3818,8037 3850,8043C3864,8045 4339,8047 4907,8046C5938,8045 5939,8045 5967,8024Z" style="fill:rgb(99,102,241);fill-rule:nonzero;"/>
            </g>
            <g transform="mfatrix(0.5,0,0,0.5,4151.56,6537.85)">
                <path d="M1278,6126C1217,6104 1190,6081 1169,6037C1151,5996 1150,5938 1150,4060C1150,2404 1153,2110 1165,2021C1209,1713 1403,1385 1655,1196C1829,1065 1994,992 2240,938C2313,922 7148,914 7375,929C7600,945 7744,981 7915,1067C8050,1135 8144,1203 8251,1310C8451,1511 8572,1758 8609,2041C8625,2168 8625,5947 8608,6003C8595,6048 8543,6105 8502,6122C8487,6127 8445,6132 8409,6133C8327,6133 8286,6111 8250,6048L8225,6005L8215,2045L8191,1970C8158,1864 8118,1789 8037,1681C7897,1496 7741,1388 7536,1335L7440,1310L4886,1310C2119,1310 2301,1307 2152,1361C1838,1475 1604,1757 1559,2074C1553,2119 1548,2861 1546,4070C1544,5129 1539,6004 1535,6015C1518,6056 1487,6091 1451,6110C1399,6136 1324,6143 1278,6126Z" style="fill:rgb(99,102,241);fill-rule:nonzero;"/>
            </g>
            <g transform="matrix(0.5,0,0,0.5,4151.56,6537.85)">
                <path d="M1914,6131C1861,6122 1826,6099 1795,6052L1771,6015L1764,4200C1757,2310 1759,2192 1798,2064C1867,1840 2031,1657 2253,1556C2407,1485 2221,1490 4869,1490C7440,1490 7338,1488 7479,1541C7603,1587 7673,1632 7765,1724C7910,1869 7978,2008 8000,2200C8008,2266 8010,2872 8008,4155C8005,5987 8005,6015 7985,6048C7943,6117 7858,6149 7765,6130C7709,6118 7672,6090 7642,6035C7626,6007 7625,5850 7620,4110L7615,2215L7586,2147C7553,2069 7480,1982 7414,1944C7390,1930 7342,1910 7308,1899C7247,1881 7177,1880 4880,1880C2359,1880 2473,1878 2371,1926C2313,1954 2209,2067 2180,2136L2155,2195L2150,4105C2145,5985 2145,6016 2125,6048C2085,6113 2005,6145 1914,6131Z" style="fill:rgb(99,102,241);fill-rule:nonzero;"/>
            </g>
            <g transform="matrix(0.5,0,0,0.5,4151.56,6537.85)">
                <path d="M4740,6019C4299,5973 3894,5779 3580,5461C3234,5111 3048,4677 3033,4189C3022,3861 3081,3581 3220,3295C3656,2394 4712,1987 5646,2359C5884,2455 6109,2608 6302,2808C6520,3034 6676,3306 6765,3615C6849,3906 6853,4284 6775,4590C6655,5067 6356,5476 5935,5741C5587,5960 5151,6061 4740,6019ZM5314,5449C5317,5415 5320,5046 5320,4630C5320,4214 5323,3744 5327,3587L5333,3300L5660,3300L5660,4620L6150,4620L6150,4538C6150,4492 6153,4404 6157,4343L6163,4230L6252,4230C6321,4230 6340,4233 6340,4244C6340,4266 6397,4308 6436,4316C6592,4345 6653,4113 6502,4060C6465,4047 6455,4047 6418,4060C6390,4070 6368,4086 6355,4107L6335,4139L6204,4140L6073,4140L6067,4238C6063,4291 6060,4379 6060,4433L6060,4531L5908,4528L5755,4525L5752,3868L5750,3210L5243,3210L5237,3323C5233,3384 5230,3804 5230,4255C5230,4706 5227,5153 5223,5248L5217,5420L4880,5420L4880,4612L4920,4572C4955,4537 4960,4527 4960,4485C4960,4401 4910,4350 4828,4350C4748,4350 4701,4400 4700,4484C4700,4527 4704,4536 4740,4572L4780,4612L4780,5055C4780,5298 4783,5500 4787,5503C4790,5507 4909,5510 5050,5510L5307,5510L5314,5449ZM4238,5117C4304,5046 4378,4763 4471,4223L4483,4150L4870,4150L4870,3385C4870,2964 4867,2620 4862,2620C4841,2620 4807,2657 4781,2708C4712,2844 4633,3212 4515,3940C4501,4025 4487,4107 4484,4123L4478,4150L3871,4150L3860,4108C3840,4028 3778,3836 3755,3785C3689,3635 3618,3633 3544,3780C3513,3843 3420,4106 3420,4132C3420,4149 3437,4150 3644,4150L3868,4150L3910,4323C3932,4417 3960,4533 3972,4580C4087,5052 4160,5200 4238,5117Z" style="fill:rgb(99,102,241);fill-rule:nonzero;"/>
            </g>
        </g>
    </g>
</svg>
